# File generated by FabConvert.com - Free Image and 3D model conversion tools

mtllib pickaxe.mtl

# ucylebxfa_LOD0_TIER3_000_0
o obj1
v -3.00731087 17.46273804 0.18978882
v -0.88678169 8.16768646 1.86395168
v -3.30366516 20.58126068 0.29769373
v 0.98171616 26.26071167 3.27334738
v -1.31970215 27.61636353 1.78810596
v -2.52613831 26.45104218 2.55124855
v 2.1759758 19.30196381 0.74982023
v 1.18186569 20.17445374 2.09239054
v 3.92580223 23.56322479 0.14250469
v 1.18186569 20.17445374 2.09239054
v 2.87673569 20.92343903 0.10088301
v 4.00705147 24.1838913 1.02507591
v 2.1759758 19.30196381 0.74982023
v -3.57461548 27.14716339 0.59945536
v -6.68156052 26.31988525 1.07970285
v -4.53578758 24.58599854 0.74060678
v -2.52613831 26.45104218 2.55124855
v -6.68156052 26.31988525 1.07970285
v 25.1880722 16.50727844 -1.0595808
v 24.90565872 17.1394043 -0.89563298
v 25.41373062 16.2694397 -0.58842659
v 25.41373062 16.2694397 -0.58842659
v 21.38343048 17.6366806 -1.16396284
v 25.1880722 16.50727844 -1.0595808
v 3.11354446 26.25119019 0.15424347
v 6.09622574 26.2547226 1.21378708
v 3.07281303 26.6961441 -1.55301964
v 7.8216095 25.75946808 -0.99432707
v 3.99212074 24.03666687 -0.67783546
v 3.07281303 26.6961441 -1.55301964
v 2.48606491 26.88316345 0.97192764
v -2.35225677 20.64981842 -1.26567841
v -2.35225677 20.64981842 -1.26567841
v -3.30366516 20.58126068 0.29769373
v -2.3260479 20.79798889 -2.82840395
v -4.56795883 23.61969757 -0.50559402
v 2.16773224 20.83740997 -2.31815958
v -4.56795883 23.61969757 -0.50559402
v -4.82686996 26.80377197 -1.13002539
v -2.3260479 20.79798889 -2.82840395
v 2.16773224 20.83740997 -2.31815958
v 0.42977142 20.37360382 -2.64703155
v 1.29350471 27.07404327 -1.64268315
v -2.00756264 26.79203033 -2.79428244
v -2.07286644 27.28234863 -1.83631396
v -0.2679348 26.77884674 -3.427279
v -14.12938976 23.49333954 -0.11948466
v -18.54452896 22.16494751 -1.5460825
v -13.36962414 24.04122925 0.69694042
v -25.09606552 18.44966888 -1.51165247
v -24.90096092 18.18370819 -0.44634438
v -24.67612457 18.68861389 -0.27319551
v -25.09606552 18.44966888 -1.51165247
v -14.49509621 21.19385529 -0.78646874
v -24.90096092 18.18370819 -0.44634438
v -25.09606552 18.44966888 -1.51165247
v -24.67612457 18.68861389 -0.27319551
v -18.54452896 22.16494751 -1.5460825
v 7.14544678 22.73895264 -0.10349679
v 4.00705147 24.1838913 1.02507591
v 3.92580223 23.56322479 0.14250469
v -2.87243652 27.03939056 -1.15212178
v -20.17215729 19.73780823 -1.78860366
v -14.12938976 23.49333954 -0.11948466
v -12.04426956 24.80422974 -1.26803017
v -12.04426956 24.80422974 -1.26803017
v -4.82686996 26.80377197 -1.13002539
v -2.17610741 20.55765533 -1.88853955
v -0.2679348 26.77884674 -3.427279
v -11.36829948 22.64376831 -1.32529926
v -4.56795883 23.61969757 -0.50559402
v -8.11828041 23.11901855 -0.31375074
v 2.16773224 20.83740997 -2.31815958
v 2.2655468 19.29253387 -1.02350259
v 0.42977142 20.37360382 -2.64703155
v 2.2655468 19.29253387 -1.02350259
v -0.94477081 -3.15344238 -1.90840924
v 0.08515739 -5.6342392 -2.2102952
v -0.2729454 -15.11214066 -1.78930402
v 21.85580826 18.9176712 -1.11579537
v 18.69000626 18.52108765 -0.59895802
v 21.23509598 19.17082214 0.08496976
v 0.92300606 -23.02421188 -1.23157787
v 0.47785378 -30.40023994 -1.14519525
v -0.33189392 -36.15516663 -0.9192152
v 0.21986961 -43.26472855 -0.75827193
v -0.06729507 -52.258358 -0.34888411
v -13.36962414 24.04122925 0.69694042
v -18.54452896 22.16494751 -1.5460825
v -4.56795883 23.61969757 -0.50559402
v 0.98171616 26.26071167 3.27334738
v 4.00705147 24.1838913 1.02507591
v 6.09622574 26.2547226 1.21378708
v 2.48606491 26.88316345 0.97192764
v 0.98171616 26.26071167 3.27334738
v 7.8216095 25.75946808 -0.99432707
v 13.3352623 21.03599548 0.61171865
v 0.90110016 -59.04914474 2.74832535
v 1.59447479 -59.13781738 0.70175171
v 1.57425308 -54.00389481 1.61686754
v -1.39549065 20.34169006 2.01504469
v 0.30257988 -59.12704086 -0.30959129
v -1.45074844 -59.00448227 1.46331406
v -2.38324928 8.97515869 0.73256207
v 0.30257988 -59.12704086 -0.30959129
v -1.27246857 -52.58965302 0.88368511
v 2.14100266 -23.47930145 0.06749892
v 0.93546104 -35.39782715 -0.92315006
v 1.97884369 -21.25571823 -0.44162893
v -1.58039856 -31.17176247 0.83347273
v -1.45074844 -59.00448227 1.46331406
v 11.39440536 21.32258606 0.098598
v -1.10449028 -11.00247955 1.64012098
v -0.20393562 -20.44247055 2.2929244
v 0.37362671 -9.39441681 2.18300533
v -3.00731087 17.46273804 0.18978882
v -1.53461266 -26.81197739 0.22521019
v -2.38324928 8.97515869 0.73256207
v 2.41316986 -6.61739349 0.21813059
v 2.48282814 -12.53664398 -0.09788418
v 2.47047806 -0.54917908 -0.06748581
v 0.98171616 26.26071167 3.27334738
v 0.98171616 26.26071167 3.27334738
v 2.30116653 26.35189056 1.24951935
v 3.11354446 26.25119019 0.15424347
v 2.30116653 26.35189056 1.24951935
v 3.07281303 26.6961441 -1.55301964
v 2.29729271 27.02571106 -0.79057002
v 0.93546104 -35.39782715 -0.92315006
v 1.28329086 9.23500824 -2.104918
v 1.05169487 -13.98707581 -1.54501688
v 2.09561348 -23.73104858 0.71510839
v 2.23099136 -18.41265869 -0.21108246
v 3.99212074 24.03666687 -0.67783546
v 21.85580826 18.9176712 -1.11579537
v 25.1880722 16.50727844 -1.0595808
v 21.38343048 17.6366806 -1.16396284
v 14.46069336 20.26670074 -0.54388666
v 15.86240768 19.70464325 -0.09826589
v -2.17610741 20.55765533 -1.88853955
v 0.96088219 27.02156067 -1.15846682
v -1.31970215 27.61636353 1.78810596
v 3.99212074 24.03666687 -0.67783546
v 2.29729271 27.02571106 -0.79057002
v -6.68156052 26.31988525 1.07970285
v -2.00756264 26.79203033 -2.79428244
v -4.53578758 24.58599854 0.74060678
v -20.17215729 19.73780823 -1.78860366
v 3.07281303 26.6961441 -1.55301964
v 13.3352623 21.03599548 0.61171865
v 25.41373062 16.2694397 -0.58842659
v 21.23509598 19.17082214 0.08496976
v -11.36829948 22.64376831 -1.32529926
v -3.57461548 27.14716339 0.59945536
v 2.16773224 20.83740997 -2.31815958
v 12.7100029 21.38174438 -1.06006479
v 12.7100029 21.38174438 -1.06006479
v 2.48282814 -12.53664398 -0.09788418
v 2.23099136 -18.41265869 -0.21108246
v 1.97884369 -21.25571823 -0.44162893
v 1.28329086 9.23500824 -2.104918
v 1.05169487 -13.98707581 -1.54501688
v 1.05169487 -13.98707581 -1.54501688
v -0.25290489 -7.12394714 2.20454264
v 1.59447479 -59.13781738 0.70175171
v -3.00731087 17.46273804 0.18978882
v -1.58039856 -31.17176247 0.83347273
v -1.45074844 -59.00448227 1.46331406
v -0.41349411 -58.98826599 2.80374813
v -0.62927437 -3.51412582 2.05515718
v -0.41349411 -58.98826599 2.80374813
v 0.90110016 -59.04914474 2.74832535
v 2.1759758 19.30196381 0.74982023
v 1.22233963 -53.78786469 2.29654121
v 2.41316986 -6.61739349 0.21813059
vn -0.98985 -0.04356 0.13528
vn -0.09146 -0.11448 0.98921
vn -0.80432 -0.57945 0.13156
vn 0.28194 0.46852 0.83726
vn -0.08005 0.94594 0.31431
vn -0.36028 0.29235 0.88585
vn 0.74974 -0.09331 0.65511
vn 0.49585 -0.29659 0.81619
vn 0.41525 -0.90688 0.07168
vn 0.9481 -0.2559 0.18874
vn 0.27643 -0.6529 0.70521
vn -0.27551 0.94108 0.19611
vn -0.40312 0.4958 0.7692
vn -0.3272 -0.67393 0.66239
vn 0.55542 -0.38273 -0.73825
vn 0.65078 0.7409 -0.166
vn 0.6769 -0.62353 0.39118
vn -0.20265 -0.62294 -0.75556
vn 0.53573 0.74375 0.39979
vn 0.28592 0.60744 0.74112
vn 0.35104 0.68017 -0.64353
vn 0.31759 0.59938 -0.73476
vn 0.39533 -0.60334 -0.6926
vn 0.67111 0.61744 0.41034
vn -0.71774 -0.62496 -0.30704
vn -0.32988 -0.52959 -0.78148
vn -0.33306 -0.83332 -0.44119
vn 0.6107 -0.14133 -0.77915
vn -0.40921 0.61006 -0.67851
vn 0.10509 -0.47739 -0.87238
vn 0.07346 0.98505 -0.15579
vn -0.31568 0.654 -0.68749
vn -0.21506 0.95201 -0.21776
vn 0.0613 0.57931 -0.8128
vn -0.28658 0.95331 -0.09525
vn -0.31686 0.7506 -0.57982
vn -0.19485 0.69738 0.68971
vn -0.81428 -0.28226 -0.50722
vn -0.53377 -0.71366 0.45362
vn -0.45174 0.40903 0.79286
vn -0.77785 -0.36397 -0.51232
vn 0.29176 -0.95388 -0.07059
vn -0.29285 -0.95277 0.08036
vn -0.35321 0.90063 -0.25318
vn 0.13623 -0.59756 -0.79017
vn -0.25749 0.70761 -0.65801
vn -0.63542 -0.51103 -0.57887
vn 0.15906 -0.62484 -0.76438
vn 0.25122 -0.96671 0.04868
vn 0.82655 -0.33122 -0.45508
vn -0.63466 -0.02933 -0.77224
vn 0.02732 -0.02682 -0.99927
vn -0.30092 -0.04472 -0.9526
vn 0.34171 0.63252 -0.69509
vn -0.32642 -0.94058 0.0936
vn 0.36552 0.55136 0.74993
vn 0.23186 -0.01748 -0.97259
vn 0.18711 -0.02202 -0.98209
vn -0.43791 -0.0436 -0.89796
vn -0.17607 -0.02873 -0.98396
vn -0.4896 -0.0393 -0.87106
vn -0.14255 -0.55165 0.82181
vn 0.45683 -0.56326 0.6885
vn 0.69671 -0.68626 -0.20891
vn 0.96135 -0.0147 0.27495
vn -0.38063 -0.14286 0.91363
vn -0.10734 -0.58818 -0.80158
vn -0.78432 -0.61935 -0.03521
vn -0.92175 -0.01263 0.38759
vn -0.80963 -0.02857 -0.58624
vn 0.96291 0.00705 -0.26972
vn 0.48501 -0.03948 -0.87362
vn 0.87029 0.02955 -0.49166
vn -0.99077 -0.0188 0.13426
vn -0.35896 -0.9283 0.09698
vn -0.50112 -0.03679 0.86459
vn -0.40096 0.01189 0.91602
vn 0.04705 0.0145 0.99879
vn -0.99103 -0.04071 -0.12726
vn 0.93636 -0.00075 0.35103
vn 0.97281 -0.01529 -0.23111
vn 0.99897 0.00242 0.04528
vn 0.59378 0.70648 0.38512
vn 0.18675 0.98235 -0.0102
vn 0.58722 -0.01711 -0.80924
vn 0.49264 -0.03474 -0.86954
vn 0.96644 -0.01963 0.25614
vn 0.86735 -0.02395 -0.49712
vn -0.36952 -0.88724 -0.27615
vn -0.2906 -0.895 0.33841
vn 0.04584 0.99889 -0.01114
vn -0.20338 -0.51577 -0.83224
vn -0.11765 0.02567 0.99272
vn -0.36755 -0.63393 0.68047
vn -0.18828 0.02328 0.98184
vn 0.81625 0.00351 0.57769
vt 0.87902 0.07692
vt 0.7688 0.055
vt 0.91499 0.0752
vt 0.50106 0.04785
vt 0.52243 0.01974
vt 0.53953 0.03243
vt 0.88932 0
vt 0.90316 0.01681
vt 0.02104 0.05815
vt 0.06681 0.02668
vt 0.05407 0.05589
vt 0.01287 0.04873
vt 0.07447 0.047
vt 0.54984 0.00766
vt 0.58691 0.01368
vt 0.96347 0.07899
vt 0.9824 0.04622
vt 0.9904 0.09653
vt 0.59237 0.10538
vt 0.59992 0.107
vt 0.59089 0.11152
vt 0.32539 0.01482
vt 0.27687 0.00547
vt 0.32244 0.00891
vt 0.8737 0.09883
vt 0.84076 0.11418
vt 0.87222 0.07878
vt 0.76003 0.27074
vt 0.71955 0.29775
vt 0.70382 0.26756
vt 0.88599 0.10518
vt 0.9153 0.09634
vt 0.88874 0.28153
vt 0.8737 0.29642
vt 0.89338 0.26399
vt 0.84428 0.27059
vt 0.69252 0.3357
vt 0.60023 0.30981
vt 0.60047 0.2722
vt 0.64036 0.33887
vt 0.94531 0.26989
vt 0.9244 0.27295
vt 0.28253 0.31452
vt 0.24468 0.32896
vt 0.24458 0.31657
vt 0.65955 0.26801
vt 0.09541 0.30407
vt 0.04094 0.31753
vt 0.10599 0.29431
vt 0.96826 0.33687
vt 0.96156 0.32587
vt 0.96671 0.3216
vt 0.33657 0.13545
vt 0.46484 0.13761
vt 0.33926 0.14805
vt 0.35717 0.34375
vt 0.35664 0.3284
vt 0.43727 0.3097
vt 0.10276 0.00983
vt 0.0625 0.02321
vt 0.06386 0.01088
vt 0.23421 0.31008
vt 0.39532 0.1295
vt 0.48464 0.28028
vt 0.51525 0.28732
vt 0.12441 0.31661
vt 0.21129 0.31072
vt 0.89306 0.27533
vt 0.26507 0.33594
vt 0.50263 0.12804
vt 0.58207 0.13185
vt 0.54027 0.13778
vt 0.9583 0.23589
vt 0.93671 0.24479
vt 0.94958 0.21661
vt 0.07549 0.06787
vt 0.67711 0.19738
vt 0.64887 0.20952
vt 0.53891 0.20433
vt 0.63944 0.09578
vt 0.24336 0.01057
vt 0.6501 0.11154
vt 0.44691 0.21722
vt 0.36145 0.21092
vt 0.29517 0.20039
vt 0.21273 0.20569
vt 0.10855 0.20074
vt 0.98787 0.17823
vt 0.99998 0.24583
vt 0.95045 0.09174
vt 0.89621 0.13997
vt 0.84788 0.15171
vt 0.83574 0.11989
vt 0.47707 0.02582
vt 0.00018 0.00078
vt 0.81762 0.09064
vt 0.1758 0.02247
vt 0.04378 0.27705
vt 0.04234 0.2519
vt 0.10122 0.26268
vt 0.9097 0.04582
vt 0.02423 0.24688
vt 0.0133 0.2733
vt 0.7805 0.07548
vt 0.02908 0.20446
vt 0.10444 0.18087
vt 0.45068 0.24678
vt 0.31415 0.23034
vt 0.47637 0.24078
vt 0.35225 0.1743
vt 0.03011 0.17559
vt 0.15402 0.01428
vt 0.55183 0.09102
vt 0.44111 0.09425
vt 0.56756 0.06992
vt 0.91537 0.15984
vt 0.40276 0.17942
vt 0.81672 0.15625
vt 0.37148 0.03041
vt 0.43992 0.02881
vt 0.30252 0.0391
vt 0.97396 0.00567
vt 0.89648 0.13574
vt 0.88288 0.11155
vt 0.86936 0.10547
vt 0.87955 0.11754
vt 0.4604 0.00084
vt 0.47257 0.00577
vt 0.30366 0.2151
vt 0.8206 0.22598
vt 0.55174 0.22048
vt 0.44781 0.25422
vt 0.50934 0.24392
vt 0.06355 0
vt 0.933 0.32205
vt 0.97559 0.34315
vt 0.93005 0.33756
vt 0.19116 0.00879
vt 0.20816 0.01469
vt 0.95159 0.18519
vt 0.2787 0.30886
vt 0.25148 0.27478
vt 0.01644 0.06807
vt 0.29419 0.30454
vt 0.18784 0.28612
vt 0.63821 0.26954
vt 0.58594 0.14941
vt 0.41552 0.33568
vt 0.30371 0.31371
vt 0.73454 0.14086
vt 0.58398 0.13462
vt 0.6422 0.12333
vt 0.52035 0.31298
vt 0.22544 0.28993
vt 0.05972 0.08496
vt 0.82407 0.31135
vt 0.16834 0.00059
vt 0.57687 0.24573
vt 0.49959 0.2386
vt 0.46687 0.23332
vt 0.19236 0.07542
vt 0.55999 0.22236
vt 0.45898 0.05065
vt 0.59372 0.07324
vt 0.02832 0.22343
vt 0.91349 0.31445
vt 0.32252 0.13512
vt 0.00501 0.17683
vt 0.00259 0.15748
vt 0.63489 0.07145
vt 0.03 0.2832
vt 0 0.14256
vt 0.94043 0.26125
vt 0.10357 0.27134
vt 0.64478 0.25043
usemtl mat0
f 1/1/1 2/2/2 3/3/3
f 4/4/4 5/5/5 6/6/6
f 2/2/2 7/7/7 8/8/8
f 9/9/9 10/10/8 11/11/10
f 9/9/9 12/12/11 10/10/8
f 13/13/7 11/11/10 10/10/8
f 14/14/12 15/15/13 6/6/6
f 16/16/14 17/17/6 18/18/13
f 19/19/15 20/20/16 21/21/17
f 22/22/17 23/23/18 24/24/15
f 25/25/19 26/26/20 27/27/21
f 28/28/22 29/29/23 30/30/21
f 27/27/21 31/31/24 25/25/19
f 3/3/3 32/32/25 1/1/1
f 33/33/25 34/34/3 35/35/26
f 36/36/27 35/35/26 34/34/3
f 37/37/28 30/30/21 29/29/23
f 38/38/27 39/39/29 40/40/26
f 35/35/26 41/41/28 42/42/30
f 43/43/31 44/44/32 45/45/33
f 37/37/28 40/40/26 46/46/34
f 47/47/35 48/48/36 49/49/37
f 50/50/38 51/51/39 52/52/40
f 53/53/41 54/54/42 55/55/39
f 56/56/38 57/57/40 58/58/36
f 59/59/43 60/60/11 61/61/9
f 44/44/32 62/62/44 45/45/33
f 46/46/34 30/30/21 37/37/28
f 53/53/41 63/63/45 54/54/42
f 64/64/35 65/65/46 58/58/36
f 49/49/37 66/66/46 47/47/35
f 66/66/46 49/49/37 67/67/29
f 68/68/47 35/35/26 42/42/30
f 43/43/31 69/69/34 44/44/32
f 70/70/48 71/71/27 72/72/49
f 33/33/25 35/35/26 68/68/47
f 73/73/28 74/74/50 75/75/30
f 76/76/50 11/11/10 13/13/7
f 77/77/51 78/78/52 79/79/53
f 19/19/15 80/80/54 20/20/16
f 22/22/17 81/81/55 23/23/18
f 82/82/56 21/21/17 20/20/16
f 83/83/57 84/84/58 85/85/59
f 85/85/59 86/86/60 87/87/61
f 88/88/37 89/89/36 52/52/40
f 90/90/27 3/3/3 16/16/14
f 6/6/6 5/5/5 14/14/12
f 91/91/4 92/92/11 93/93/20
f 94/94/24 5/5/5 4/4/4
f 95/95/4 10/10/8 12/12/11
f 27/27/21 26/26/20 96/96/22
f 60/60/11 59/59/43 97/97/62
f 98/98/63 99/99/64 100/100/65
f 8/8/8 101/101/66 2/2/2
f 102/102/67 99/99/64 103/103/68
f 2/2/2 1/1/1 104/104/69
f 87/87/61 105/105/67 106/106/70
f 100/100/65 99/99/64 107/107/71
f 108/108/72 109/109/73 107/107/71
f 110/110/74 106/106/70 111/111/68
f 97/97/62 59/59/43 112/112/75
f 113/113/76 114/114/77 115/115/78
f 116/116/1 117/117/79 118/118/69
f 119/119/80 120/120/81 121/121/82
f 8/8/8 122/122/4 101/101/66
f 31/31/24 123/123/4 124/124/83
f 17/17/6 16/16/14 101/101/66
f 125/125/19 126/126/83 93/93/20
f 94/94/24 127/127/21 128/128/84
f 86/86/60 85/85/59 129/129/72
f 130/130/85 75/75/30 74/74/50
f 79/79/53 78/78/52 131/131/86
f 132/132/87 109/109/73 133/133/88
f 96/96/22 26/26/20 82/82/56
f 59/59/43 61/61/9 134/134/23
f 135/135/54 136/136/15 137/137/18
f 138/138/89 81/81/55 139/139/90
f 131/131/86 78/78/52 130/130/85
f 140/140/47 75/75/30 77/77/51
f 141/141/91 45/45/33 142/142/5
f 143/143/23 9/9/9 11/11/10
f 141/141/91 144/144/84 43/43/31
f 67/67/29 49/49/37 145/145/13
f 40/40/26 39/39/29 146/146/32
f 147/147/14 55/55/39 54/54/42
f 148/148/45 56/56/41 58/58/36
f 63/63/45 70/70/48 54/54/42
f 147/147/14 54/54/42 72/72/49
f 69/69/34 43/43/31 149/149/21
f 93/93/20 92/92/11 150/150/62
f 51/51/39 16/16/14 88/88/37
f 51/51/39 88/88/37 52/52/40
f 16/16/14 18/18/13 88/88/37
f 151/151/17 152/152/56 150/150/62
f 152/152/56 93/93/20 150/150/62
f 43/43/31 144/144/84 149/149/21
f 71/71/27 147/147/14 72/72/49
f 70/70/48 72/72/49 54/54/42
f 38/38/27 65/65/46 39/39/29
f 153/153/48 65/65/46 38/38/27
f 153/153/48 58/58/36 65/65/46
f 153/153/48 148/148/45 58/58/36
f 46/46/34 40/40/26 146/146/32
f 62/62/44 142/142/5 45/45/33
f 62/62/44 154/154/12 142/142/5
f 62/62/44 67/67/29 154/154/12
f 62/62/44 44/44/32 67/67/29
f 67/67/29 145/145/13 154/154/12
f 141/141/91 43/43/31 45/45/33
f 11/11/10 76/76/50 155/155/28
f 143/143/23 11/11/10 155/155/28
f 141/141/91 142/142/5 144/144/84
f 75/75/30 78/78/52 77/77/51
f 78/78/52 75/75/30 130/130/85
f 138/138/89 139/139/90 112/112/75
f 29/29/23 28/28/22 156/156/92
f 28/28/22 135/135/54 156/156/92
f 135/135/54 137/137/18 156/156/92
f 157/157/92 23/23/18 81/81/55
f 138/138/89 157/157/92 81/81/55
f 138/138/89 112/112/75 157/157/92
f 112/112/75 59/59/43 157/157/92
f 59/59/43 134/134/23 157/157/92
f 82/82/56 20/20/16 80/80/54
f 96/96/22 82/82/56 80/80/54
f 132/132/87 133/133/88 158/158/81
f 79/79/53 83/83/57 85/85/59
f 79/79/53 131/131/86 83/83/57
f 83/83/57 159/159/88 160/160/73
f 76/76/50 120/120/81 161/161/85
f 158/158/81 133/133/88 162/162/86
f 84/84/58 83/83/57 160/160/73
f 129/129/72 84/84/58 160/160/73
f 83/83/57 131/131/86 159/159/88
f 163/163/86 161/161/85 120/120/81
f 85/85/59 84/84/58 129/129/72
f 105/105/67 86/86/60 129/129/72
f 105/105/67 87/87/61 86/86/60
f 94/94/24 128/128/84 5/5/5
f 126/126/83 91/91/4 93/93/20
f 3/3/3 2/2/2 101/101/66
f 16/16/14 3/3/3 101/101/66
f 25/25/19 31/31/24 124/124/83
f 122/122/4 17/17/6 101/101/66
f 121/121/82 76/76/50 13/13/7
f 121/121/82 120/120/81 76/76/50
f 117/117/79 110/110/74 118/118/69
f 113/113/76 115/115/78 164/164/93
f 81/81/55 97/97/62 139/139/90
f 22/22/17 97/97/62 81/81/55
f 97/97/62 112/112/75 139/139/90
f 129/129/72 165/165/64 105/105/67
f 108/108/72 107/107/71 99/99/64
f 100/100/65 107/107/71 132/132/87
f 107/107/71 109/109/73 132/132/87
f 85/85/59 87/87/61 106/106/70
f 110/110/74 85/85/59 106/106/70
f 117/117/79 79/79/53 85/85/59
f 110/110/74 117/117/79 85/85/59
f 117/117/79 77/77/51 79/79/53
f 116/116/1 77/77/51 117/117/79
f 116/116/1 140/140/47 77/77/51
f 166/166/1 33/33/25 68/68/47
f 105/105/67 111/111/68 106/106/70
f 114/114/77 113/113/76 167/167/74
f 168/168/68 169/169/94 167/167/74
f 169/169/94 114/114/77 167/167/74
f 113/113/76 104/104/69 167/167/74
f 113/113/76 170/170/95 104/104/69
f 113/113/76 164/164/93 170/170/95
f 2/2/2 104/104/69 170/170/95
f 99/99/64 171/171/94 103/103/68
f 99/99/64 98/98/63 171/171/94
f 7/7/7 115/115/78 172/172/63
f 115/115/78 114/114/77 172/172/63
f 170/170/95 164/164/93 115/115/78
f 114/114/77 169/169/94 172/172/63
f 7/7/7 170/170/95 115/115/78
f 7/7/7 2/2/2 170/170/95
f 98/98/63 132/132/87 173/173/7
f 174/174/96 132/132/87 98/98/63
f 132/132/87 175/175/80 173/173/7
f 119/119/80 121/121/82 13/13/7
f 132/132/87 158/158/81 175/175/80
f 174/174/96 100/100/65 132/132/87
f 174/174/96 98/98/63 100/100/65
# Vertices: 175, normals: 96, texture coordinates: 175, faces: 186

